# MagicaVoxel @ Ephtracy

# group
o 

# material
mtllib Big_keyhole.mtl
usemtl palette

# normals
vn -1 0 0
vn 1 0 0
vn 0 0 1
vn 0 0 -1
vn 0 -1 0
vn 0 1 0

# texcoords
vt 0.431641 0.5
vt 0.986328 0.5
vt 0.994141 0.5

# verts
v -0.7 0 0.7
v -0.7 0 -0.7
v -0.7 0.1 0.7
v -0.7 0.1 -0.7
v -0.7 0.3 0.7
v -0.7 0.3 -0.7
v -0.6 0.3 0.6
v -0.6 0.3 0.5
v -0.6 0.3 -0.5
v -0.6 0.3 -0.6
v -0.6 0.4 0.6
v -0.6 0.4 0.5
v -0.6 0.4 -0.5
v -0.6 0.4 -0.6
v -0.3 0.1 -0.1
v -0.3 0.1 -0.3
v -0.3 0.3 -0.1
v -0.3 0.3 -0.3
v 0.1 0.1 0.6
v 0.1 0.1 0.1
v 0.1 0.1 -0.1
v 0.1 0.1 -0.6
v 0.1 0.3 0.6
v 0.1 0.3 0.1
v 0.1 0.3 -0.1
v 0.1 0.3 -0.6
v 0.4 0.1 0.1
v 0.4 0.1 -0.1
v 0.4 0.3 0.1
v 0.4 0.3 -0.1
v 0.5 0.1 -0.1
v 0.5 0.1 -0.3
v 0.5 0.3 0.6
v 0.5 0.3 0.5
v 0.5 0.3 -0.1
v 0.5 0.3 -0.3
v 0.5 0.3 -0.5
v 0.5 0.3 -0.6
v 0.5 0.4 0.6
v 0.5 0.4 0.5
v 0.5 0.4 -0.5
v 0.5 0.4 -0.6
v -0.5 0.1 -0.1
v -0.5 0.1 -0.3
v -0.5 0.3 0.6
v -0.5 0.3 0.5
v -0.5 0.3 -0.1
v -0.5 0.3 -0.3
v -0.5 0.3 -0.5
v -0.5 0.3 -0.6
v -0.5 0.4 0.6
v -0.5 0.4 0.5
v -0.5 0.4 -0.5
v -0.5 0.4 -0.6
v -0.4 0.1 0.1
v -0.4 0.1 -0.1
v -0.4 0.3 0.1
v -0.4 0.3 -0.1
v -0.1 0.1 0.6
v -0.1 0.1 0.1
v -0.1 0.1 -0.1
v -0.1 0.1 -0.6
v -0.1 0.3 0.6
v -0.1 0.3 0.1
v -0.1 0.3 -0.1
v -0.1 0.3 -0.6
v 0.3 0.1 -0.1
v 0.3 0.1 -0.3
v 0.3 0.3 -0.1
v 0.3 0.3 -0.3
v 0.6 0.3 0.6
v 0.6 0.3 0.5
v 0.6 0.3 -0.5
v 0.6 0.3 -0.6
v 0.6 0.4 0.6
v 0.6 0.4 0.5
v 0.6 0.4 -0.5
v 0.6 0.4 -0.6
v 0.7 0 0.7
v 0.7 0 -0.7
v 0.7 0.1 0.7
v 0.7 0.1 -0.7
v 0.7 0.3 0.7
v 0.7 0.3 -0.7
v -0.7 0 0.7
v -0.7 0.1 0.7
v -0.7 0.3 0.7
v 0.7 0 0.7
v 0.7 0.1 0.7
v 0.7 0.3 0.7
v -0.6 0.3 0.6
v -0.6 0.4 0.6
v -0.5 0.3 0.6
v -0.5 0.4 0.6
v 0.5 0.3 0.6
v 0.5 0.4 0.6
v 0.6 0.3 0.6
v 0.6 0.4 0.6
v -0.3 0.1 -0.1
v -0.3 0.3 -0.1
v -0.1 0.1 -0.1
v -0.1 0.3 -0.1
v 0.1 0.1 -0.1
v 0.1 0.3 -0.1
v 0.3 0.1 -0.1
v 0.3 0.3 -0.1
v -0.5 0.1 -0.3
v -0.5 0.3 -0.3
v -0.3 0.1 -0.3
v -0.3 0.3 -0.3
v 0.3 0.1 -0.3
v 0.3 0.3 -0.3
v 0.5 0.1 -0.3
v 0.5 0.3 -0.3
v -0.6 0.3 -0.5
v -0.6 0.4 -0.5
v -0.5 0.3 -0.5
v -0.5 0.4 -0.5
v 0.5 0.3 -0.5
v 0.5 0.4 -0.5
v 0.6 0.3 -0.5
v 0.6 0.4 -0.5
v -0.1 0.1 -0.6
v -0.1 0.3 -0.6
v 0.1 0.1 -0.6
v 0.1 0.3 -0.6
v -0.1 0.1 0.6
v -0.1 0.3 0.6
v 0.1 0.1 0.6
v 0.1 0.3 0.6
v -0.6 0.3 0.5
v -0.6 0.4 0.5
v -0.5 0.3 0.5
v -0.5 0.4 0.5
v 0.5 0.3 0.5
v 0.5 0.4 0.5
v 0.6 0.3 0.5
v 0.6 0.4 0.5
v -0.4 0.1 0.1
v -0.4 0.3 0.1
v -0.1 0.1 0.1
v -0.1 0.3 0.1
v 0.1 0.1 0.1
v 0.1 0.3 0.1
v 0.4 0.1 0.1
v 0.4 0.3 0.1
v -0.5 0.1 -0.1
v -0.5 0.3 -0.1
v -0.4 0.1 -0.1
v -0.4 0.3 -0.1
v 0.4 0.1 -0.1
v 0.4 0.3 -0.1
v 0.5 0.1 -0.1
v 0.5 0.3 -0.1
v -0.6 0.3 -0.6
v -0.6 0.4 -0.6
v -0.5 0.3 -0.6
v -0.5 0.4 -0.6
v 0.5 0.3 -0.6
v 0.5 0.4 -0.6
v 0.6 0.3 -0.6
v 0.6 0.4 -0.6
v -0.7 0 -0.7
v -0.7 0.1 -0.7
v -0.7 0.3 -0.7
v 0.7 0 -0.7
v 0.7 0.1 -0.7
v 0.7 0.3 -0.7
v -0.7 0 0.7
v 0.7 0 0.7
v -0.7 0 -0.7
v 0.7 0 -0.7
v -0.1 0.1 0.6
v 0.1 0.1 0.6
v -0.4 0.1 0.1
v -0.1 0.1 0.1
v 0.1 0.1 0.1
v 0.4 0.1 0.1
v -0.5 0.1 -0.1
v -0.4 0.1 -0.1
v -0.3 0.1 -0.1
v -0.1 0.1 -0.1
v 0.1 0.1 -0.1
v 0.3 0.1 -0.1
v 0.4 0.1 -0.1
v 0.5 0.1 -0.1
v -0.5 0.1 -0.3
v -0.3 0.1 -0.3
v 0.3 0.1 -0.3
v 0.5 0.1 -0.3
v -0.1 0.1 -0.6
v 0.1 0.1 -0.6
v -0.7 0.3 0.7
v 0.7 0.3 0.7
v -0.6 0.3 0.6
v -0.5 0.3 0.6
v -0.1 0.3 0.6
v 0.1 0.3 0.6
v 0.5 0.3 0.6
v 0.6 0.3 0.6
v -0.6 0.3 0.5
v -0.5 0.3 0.5
v 0.5 0.3 0.5
v 0.6 0.3 0.5
v -0.4 0.3 0.1
v -0.1 0.3 0.1
v 0.1 0.3 0.1
v 0.4 0.3 0.1
v -0.5 0.3 -0.1
v -0.4 0.3 -0.1
v -0.3 0.3 -0.1
v -0.1 0.3 -0.1
v 0.1 0.3 -0.1
v 0.3 0.3 -0.1
v 0.4 0.3 -0.1
v 0.5 0.3 -0.1
v -0.5 0.3 -0.3
v -0.3 0.3 -0.3
v 0.3 0.3 -0.3
v 0.5 0.3 -0.3
v -0.6 0.3 -0.5
v -0.5 0.3 -0.5
v 0.5 0.3 -0.5
v 0.6 0.3 -0.5
v -0.6 0.3 -0.6
v -0.5 0.3 -0.6
v -0.1 0.3 -0.6
v 0.1 0.3 -0.6
v 0.5 0.3 -0.6
v 0.6 0.3 -0.6
v -0.7 0.3 -0.7
v 0.7 0.3 -0.7
v -0.6 0.4 0.6
v -0.5 0.4 0.6
v 0.5 0.4 0.6
v 0.6 0.4 0.6
v -0.6 0.4 0.5
v -0.5 0.4 0.5
v 0.5 0.4 0.5
v 0.6 0.4 0.5
v -0.6 0.4 -0.5
v -0.5 0.4 -0.5
v 0.5 0.4 -0.5
v 0.6 0.4 -0.5
v -0.6 0.4 -0.6
v -0.5 0.4 -0.6
v 0.5 0.4 -0.6
v 0.6 0.4 -0.6

# faces
f 3/3/1 2/3/1 1/3/1
f 4/3/1 2/3/1 3/3/1
f 5/1/1 4/1/1 3/1/1
f 6/1/1 4/1/1 5/1/1
f 11/2/1 8/2/1 7/2/1
f 12/2/1 8/2/1 11/2/1
f 13/2/1 10/2/1 9/2/1
f 14/2/1 10/2/1 13/2/1
f 17/1/1 16/1/1 15/1/1
f 18/1/1 16/1/1 17/1/1
f 23/1/1 20/1/1 19/1/1
f 24/1/1 20/1/1 23/1/1
f 25/1/1 22/1/1 21/1/1
f 26/1/1 22/1/1 25/1/1
f 29/1/1 28/1/1 27/1/1
f 30/1/1 28/1/1 29/1/1
f 35/1/1 32/1/1 31/1/1
f 36/1/1 32/1/1 35/1/1
f 39/2/1 34/2/1 33/2/1
f 40/2/1 34/2/1 39/2/1
f 41/2/1 38/2/1 37/2/1
f 42/2/1 38/2/1 41/2/1
f 43/1/2 44/1/2 47/1/2
f 47/1/2 44/1/2 48/1/2
f 45/2/2 46/2/2 51/2/2
f 51/2/2 46/2/2 52/2/2
f 49/2/2 50/2/2 53/2/2
f 53/2/2 50/2/2 54/2/2
f 55/1/2 56/1/2 57/1/2
f 57/1/2 56/1/2 58/1/2
f 59/1/2 60/1/2 63/1/2
f 63/1/2 60/1/2 64/1/2
f 61/1/2 62/1/2 65/1/2
f 65/1/2 62/1/2 66/1/2
f 67/1/2 68/1/2 69/1/2
f 69/1/2 68/1/2 70/1/2
f 71/2/2 72/2/2 75/2/2
f 75/2/2 72/2/2 76/2/2
f 73/2/2 74/2/2 77/2/2
f 77/2/2 74/2/2 78/2/2
f 79/3/2 80/3/2 81/3/2
f 81/3/2 80/3/2 82/3/2
f 81/1/2 82/1/2 83/1/2
f 83/1/2 82/1/2 84/1/2
f 88/3/3 86/3/3 85/3/3
f 89/1/3 87/1/3 86/1/3
f 89/3/3 86/3/3 88/3/3
f 90/1/3 87/1/3 89/1/3
f 93/2/3 92/2/3 91/2/3
f 94/2/3 92/2/3 93/2/3
f 97/2/3 96/2/3 95/2/3
f 98/2/3 96/2/3 97/2/3
f 101/1/3 100/1/3 99/1/3
f 102/1/3 100/1/3 101/1/3
f 105/1/3 104/1/3 103/1/3
f 106/1/3 104/1/3 105/1/3
f 109/1/3 108/1/3 107/1/3
f 110/1/3 108/1/3 109/1/3
f 113/1/3 112/1/3 111/1/3
f 114/1/3 112/1/3 113/1/3
f 117/2/3 116/2/3 115/2/3
f 118/2/3 116/2/3 117/2/3
f 121/2/3 120/2/3 119/2/3
f 122/2/3 120/2/3 121/2/3
f 125/1/3 124/1/3 123/1/3
f 126/1/3 124/1/3 125/1/3
f 127/1/4 128/1/4 129/1/4
f 129/1/4 128/1/4 130/1/4
f 131/2/4 132/2/4 133/2/4
f 133/2/4 132/2/4 134/2/4
f 135/2/4 136/2/4 137/2/4
f 137/2/4 136/2/4 138/2/4
f 139/1/4 140/1/4 141/1/4
f 141/1/4 140/1/4 142/1/4
f 143/1/4 144/1/4 145/1/4
f 145/1/4 144/1/4 146/1/4
f 147/1/4 148/1/4 149/1/4
f 149/1/4 148/1/4 150/1/4
f 151/1/4 152/1/4 153/1/4
f 153/1/4 152/1/4 154/1/4
f 155/2/4 156/2/4 157/2/4
f 157/2/4 156/2/4 158/2/4
f 159/2/4 160/2/4 161/2/4
f 161/2/4 160/2/4 162/2/4
f 163/3/4 164/3/4 166/3/4
f 164/1/4 165/1/4 167/1/4
f 166/3/4 164/3/4 167/3/4
f 167/1/4 165/1/4 168/1/4
f 171/3/5 170/3/5 169/3/5
f 172/3/5 170/3/5 171/3/5
f 173/3/6 174/3/6 176/3/6
f 176/3/6 174/3/6 177/3/6
f 175/3/6 176/3/6 180/3/6
f 177/3/6 178/3/6 180/3/6
f 176/3/6 177/3/6 180/3/6
f 180/3/6 178/3/6 181/3/6
f 181/3/6 178/3/6 182/3/6
f 182/3/6 178/3/6 183/3/6
f 183/3/6 178/3/6 184/3/6
f 184/3/6 178/3/6 185/3/6
f 179/3/6 180/3/6 187/3/6
f 180/3/6 181/3/6 187/3/6
f 187/3/6 181/3/6 188/3/6
f 185/3/6 186/3/6 189/3/6
f 184/3/6 185/3/6 189/3/6
f 189/3/6 186/3/6 190/3/6
f 182/3/6 183/3/6 191/3/6
f 191/3/6 183/3/6 192/3/6
f 193/1/6 194/1/6 195/1/6
f 195/1/6 194/1/6 196/1/6
f 196/1/6 194/1/6 197/1/6
f 197/1/6 194/1/6 198/1/6
f 198/1/6 194/1/6 199/1/6
f 199/1/6 194/1/6 200/1/6
f 193/1/6 195/1/6 201/1/6
f 196/1/6 197/1/6 202/1/6
f 198/1/6 199/1/6 203/1/6
f 200/1/6 194/1/6 204/1/6
f 201/1/6 202/1/6 205/1/6
f 202/1/6 197/1/6 205/1/6
f 205/1/6 197/1/6 206/1/6
f 198/1/6 203/1/6 207/1/6
f 203/1/6 204/1/6 207/1/6
f 207/1/6 204/1/6 208/1/6
f 201/1/6 205/1/6 209/1/6
f 209/1/6 205/1/6 210/1/6
f 208/1/6 204/1/6 215/1/6
f 215/1/6 204/1/6 216/1/6
f 201/1/6 209/1/6 217/1/6
f 211/1/6 212/1/6 218/1/6
f 213/1/6 214/1/6 219/1/6
f 216/1/6 204/1/6 220/1/6
f 217/1/6 218/1/6 221/1/6
f 193/1/6 201/1/6 221/1/6
f 201/1/6 217/1/6 221/1/6
f 221/1/6 218/1/6 222/1/6
f 219/1/6 220/1/6 223/1/6
f 220/1/6 204/1/6 223/1/6
f 204/1/6 194/1/6 224/1/6
f 223/1/6 204/1/6 224/1/6
f 193/1/6 221/1/6 225/1/6
f 222/1/6 218/1/6 226/1/6
f 218/1/6 212/1/6 227/1/6
f 226/1/6 218/1/6 227/1/6
f 219/1/6 223/1/6 228/1/6
f 213/1/6 219/1/6 228/1/6
f 228/1/6 223/1/6 229/1/6
f 224/1/6 194/1/6 230/1/6
f 193/1/6 225/1/6 231/1/6
f 229/1/6 230/1/6 231/1/6
f 228/1/6 229/1/6 231/1/6
f 226/1/6 227/1/6 231/1/6
f 227/1/6 228/1/6 231/1/6
f 225/1/6 226/1/6 231/1/6
f 230/1/6 194/1/6 232/1/6
f 231/1/6 230/1/6 232/1/6
f 233/2/6 234/2/6 237/2/6
f 237/2/6 234/2/6 238/2/6
f 235/2/6 236/2/6 239/2/6
f 239/2/6 236/2/6 240/2/6
f 241/2/6 242/2/6 245/2/6
f 245/2/6 242/2/6 246/2/6
f 243/2/6 244/2/6 247/2/6
f 247/2/6 244/2/6 248/2/6
