# MagicaVoxel @ Ephtracy

# group
o 

# material
mtllib knife_store.mtl
usemtl palette

# normals
vn -1 0 0
vn 1 0 0
vn 0 0 1
vn 0 0 -1
vn 0 -1 0
vn 0 1 0

# texcoords
vt 0.306641 0.5
vt 0.341797 0.5
vt 0.865234 0.5
vt 0.896484 0.5

# verts
v -0.2 -0.2 0.2
v -0.2 -0.2 -0.2
v -0.2 -0.1 0.2
v -0.2 -0.1 -0.2
v -0.2 -0.1 -0.3
v -0.2 0 0.2
v -0.2 0 -0.2
v -0.2 0 -0.3
v -0.2 0.1 0.2
v -0.2 0.1 -0.2
v -0.1 -0.1 0.3
v -0.1 -0.1 0.2
v -0.1 0 0.3
v -0.1 0 0.2
v 0.2 -0.1 -0.1
v 0.2 -0.1 -0.2
v 0.2 0 -0.1
v 0.2 0 -0.2
v 0.8 -0.1 0
v 0.8 -0.1 -0.1
v 0.8 0 0
v 0.8 0 -0.1
v 1 -0.1 0.2
v 1 -0.1 0
v 1 0 0.2
v 1 0 0
v 0.2 -0.2 -0.1
v 0.2 -0.2 -0.2
v 0.2 -0.1 -0.1
v 0.2 -0.1 -0.2
v 0.2 -0.1 -0.3
v 0.2 0 -0.1
v 0.2 0 -0.2
v 0.2 0 -0.3
v 0.2 0.1 -0.1
v 0.2 0.1 -0.2
v 0.8 -0.2 0
v 0.8 -0.2 -0.1
v 0.8 -0.1 0
v 0.8 -0.1 -0.1
v 0.8 -0.1 -0.2
v 0.8 0 0
v 0.8 0 -0.1
v 0.8 0 -0.2
v 0.8 0.1 0
v 0.8 0.1 -0.1
v 1 -0.2 0.2
v 1 -0.2 0
v 1 -0.1 0.3
v 1 -0.1 0.2
v 1 -0.1 0
v 1 -0.1 -0.1
v 1 0 0.3
v 1 0 0.2
v 1 0 0
v 1 0 -0.1
v 1 0.1 0.2
v 1 0.1 0
v 1.1 -0.1 0.2
v 1.1 -0.1 0
v 1.1 0 0.2
v 1.1 0 0
v -0.1 -0.1 0.3
v -0.1 0 0.3
v 1 -0.1 0.3
v 1 0 0.3
v -0.2 -0.2 0.2
v -0.2 -0.1 0.2
v -0.2 0 0.2
v -0.2 0.1 0.2
v -0.1 -0.2 0.2
v -0.1 -0.1 0.2
v -0.1 0 0.2
v -0.1 0.1 0.2
v 0.2 -0.2 0.2
v 0.2 -0.1 0.2
v 0.2 0 0.2
v 0.2 0.1 0.2
v 0.3 -0.2 0.2
v 0.3 -0.1 0.2
v 0.3 0 0.2
v 0.3 0.1 0.2
v 0.4 -0.2 0.2
v 0.4 -0.1 0.2
v 0.4 0 0.2
v 0.4 0.1 0.2
v 0.6 -0.2 0.2
v 0.6 -0.1 0.2
v 0.6 0 0.2
v 0.6 0.1 0.2
v 0.7 -0.2 0.2
v 0.7 -0.1 0.2
v 0.7 0 0.2
v 0.7 0.1 0.2
v 0.8 -0.2 0.2
v 0.8 -0.1 0.2
v 0.8 0 0.2
v 0.8 0.1 0.2
v 1 -0.2 0.2
v 1 -0.1 0.2
v 1 0 0.2
v 1 0.1 0.2
v 1.1 -0.1 0.2
v 1.1 0 0.2
v 0.8 -0.1 0
v 0.8 0 0
v 1 -0.1 0
v 1 0 0
v 0.2 -0.1 -0.1
v 0.2 0 -0.1
v 0.4 -0.1 -0.1
v 0.4 0 -0.1
v 0.5 -0.1 -0.1
v 0.5 0 -0.1
v 0.6 -0.1 -0.1
v 0.6 0 -0.1
v 0.8 -0.1 -0.1
v 0.8 0 -0.1
v -0.2 -0.1 -0.2
v -0.2 0 -0.2
v -0.1 -0.1 -0.2
v -0.1 0 -0.2
v 0.2 -0.1 -0.2
v 0.2 0 -0.2
v -0.1 -0.1 0.2
v -0.1 0 0.2
v 0.2 -0.1 0.2
v 0.2 0 0.2
v 0.3 -0.1 0.2
v 0.3 0 0.2
v 0.4 -0.1 0.2
v 0.4 0 0.2
v 0.6 -0.1 0.2
v 0.6 0 0.2
v 0.7 -0.1 0.2
v 0.7 0 0.2
v 0.8 -0.1 0.2
v 0.8 0 0.2
v 1 -0.1 0.2
v 1 0 0.2
v 0.8 -0.2 0
v 0.8 -0.1 0
v 0.8 0 0
v 0.8 0.1 0
v 1 -0.2 0
v 1 -0.1 0
v 1 0 0
v 1 0.1 0
v 1.1 -0.1 0
v 1.1 0 0
v 0.2 -0.2 -0.1
v 0.2 -0.1 -0.1
v 0.2 0 -0.1
v 0.2 0.1 -0.1
v 0.4 -0.2 -0.1
v 0.4 -0.1 -0.1
v 0.4 0 -0.1
v 0.4 0.1 -0.1
v 0.5 -0.2 -0.1
v 0.5 -0.1 -0.1
v 0.5 0 -0.1
v 0.5 0.1 -0.1
v 0.6 -0.2 -0.1
v 0.6 -0.1 -0.1
v 0.6 0 -0.1
v 0.6 0.1 -0.1
v 0.8 -0.2 -0.1
v 0.8 -0.1 -0.1
v 0.8 0 -0.1
v 0.8 0.1 -0.1
v 1 -0.1 -0.1
v 1 0 -0.1
v -0.2 -0.2 -0.2
v -0.2 -0.1 -0.2
v -0.2 0 -0.2
v -0.2 0.1 -0.2
v -0.1 -0.2 -0.2
v -0.1 -0.1 -0.2
v -0.1 0 -0.2
v -0.1 0.1 -0.2
v 0.2 -0.2 -0.2
v 0.2 -0.1 -0.2
v 0.2 0 -0.2
v 0.2 0.1 -0.2
v 0.8 -0.1 -0.2
v 0.8 0 -0.2
v -0.2 -0.1 -0.3
v -0.2 0 -0.3
v 0.2 -0.1 -0.3
v 0.2 0 -0.3
v -0.2 -0.2 0.2
v -0.1 -0.2 0.2
v 0.2 -0.2 0.2
v 0.3 -0.2 0.2
v 0.4 -0.2 0.2
v 0.6 -0.2 0.2
v 0.7 -0.2 0.2
v 0.8 -0.2 0.2
v 1 -0.2 0.2
v -0.1 -0.2 0.1
v 0.2 -0.2 0.1
v 0.3 -0.2 0.1
v 0.4 -0.2 0.1
v 0.5 -0.2 0.1
v 0.6 -0.2 0.1
v 0.7 -0.2 0.1
v 0.8 -0.2 0.1
v -0.1 -0.2 0
v 0.2 -0.2 0
v 0.3 -0.2 0
v 0.4 -0.2 0
v 0.5 -0.2 0
v 0.6 -0.2 0
v 0.7 -0.2 0
v 0.8 -0.2 0
v 1 -0.2 0
v -0.1 -0.2 -0.1
v 0.2 -0.2 -0.1
v 0.4 -0.2 -0.1
v 0.5 -0.2 -0.1
v 0.6 -0.2 -0.1
v 0.8 -0.2 -0.1
v -0.2 -0.2 -0.2
v -0.1 -0.2 -0.2
v 0.2 -0.2 -0.2
v -0.1 -0.1 0.3
v 1 -0.1 0.3
v -0.1 -0.1 0.2
v 0.2 -0.1 0.2
v 0.3 -0.1 0.2
v 0.4 -0.1 0.2
v 0.6 -0.1 0.2
v 0.7 -0.1 0.2
v 0.8 -0.1 0.2
v 1 -0.1 0.2
v 1.1 -0.1 0.2
v 0.8 -0.1 0
v 1 -0.1 0
v 1.1 -0.1 0
v 0.2 -0.1 -0.1
v 0.4 -0.1 -0.1
v 0.5 -0.1 -0.1
v 0.6 -0.1 -0.1
v 0.8 -0.1 -0.1
v 1 -0.1 -0.1
v -0.2 -0.1 -0.2
v -0.1 -0.1 -0.2
v 0.2 -0.1 -0.2
v 0.8 -0.1 -0.2
v -0.2 -0.1 -0.3
v 0.2 -0.1 -0.3
v -0.2 0 0.2
v -0.1 0 0.2
v 0.2 0 0.2
v 0.3 0 0.2
v 0.4 0 0.2
v 0.6 0 0.2
v 0.7 0 0.2
v 0.8 0 0.2
v 1 0 0.2
v -0.1 0 0.1
v 0.2 0 0.1
v 0.3 0 0.1
v 0.4 0 0.1
v 0.5 0 0.1
v 0.6 0 0.1
v 0.7 0 0.1
v 0.8 0 0.1
v -0.1 0 0
v 0.2 0 0
v 0.3 0 0
v 0.4 0 0
v 0.5 0 0
v 0.6 0 0
v 0.7 0 0
v 0.8 0 0
v 1 0 0
v -0.1 0 -0.1
v 0.2 0 -0.1
v 0.4 0 -0.1
v 0.5 0 -0.1
v 0.6 0 -0.1
v 0.8 0 -0.1
v -0.2 0 -0.2
v -0.1 0 -0.2
v 0.2 0 -0.2
v -0.2 -0.1 0.2
v -0.1 -0.1 0.2
v 0.2 -0.1 0.2
v 0.3 -0.1 0.2
v 0.4 -0.1 0.2
v 0.6 -0.1 0.2
v 0.7 -0.1 0.2
v 0.8 -0.1 0.2
v 1 -0.1 0.2
v -0.1 -0.1 0.1
v 0.2 -0.1 0.1
v 0.3 -0.1 0.1
v 0.4 -0.1 0.1
v 0.5 -0.1 0.1
v 0.6 -0.1 0.1
v 0.7 -0.1 0.1
v 0.8 -0.1 0.1
v -0.1 -0.1 0
v 0.2 -0.1 0
v 0.3 -0.1 0
v 0.4 -0.1 0
v 0.5 -0.1 0
v 0.6 -0.1 0
v 0.7 -0.1 0
v 0.8 -0.1 0
v 1 -0.1 0
v -0.1 -0.1 -0.1
v 0.2 -0.1 -0.1
v 0.4 -0.1 -0.1
v 0.5 -0.1 -0.1
v 0.6 -0.1 -0.1
v 0.8 -0.1 -0.1
v -0.2 -0.1 -0.2
v -0.1 -0.1 -0.2
v 0.2 -0.1 -0.2
v -0.1 0 0.3
v 1 0 0.3
v -0.1 0 0.2
v 0.2 0 0.2
v 0.3 0 0.2
v 0.4 0 0.2
v 0.6 0 0.2
v 0.7 0 0.2
v 0.8 0 0.2
v 1 0 0.2
v 1.1 0 0.2
v 0.8 0 0
v 1 0 0
v 1.1 0 0
v 0.2 0 -0.1
v 0.4 0 -0.1
v 0.5 0 -0.1
v 0.6 0 -0.1
v 0.8 0 -0.1
v 1 0 -0.1
v -0.2 0 -0.2
v -0.1 0 -0.2
v 0.2 0 -0.2
v 0.8 0 -0.2
v -0.2 0 -0.3
v 0.2 0 -0.3
v -0.2 0.1 0.2
v -0.1 0.1 0.2
v 0.2 0.1 0.2
v 0.3 0.1 0.2
v 0.4 0.1 0.2
v 0.6 0.1 0.2
v 0.7 0.1 0.2
v 0.8 0.1 0.2
v 1 0.1 0.2
v -0.1 0.1 0.1
v 0.2 0.1 0.1
v 0.3 0.1 0.1
v 0.4 0.1 0.1
v 0.5 0.1 0.1
v 0.6 0.1 0.1
v 0.7 0.1 0.1
v 0.8 0.1 0.1
v -0.1 0.1 0
v 0.2 0.1 0
v 0.3 0.1 0
v 0.4 0.1 0
v 0.5 0.1 0
v 0.6 0.1 0
v 0.7 0.1 0
v 0.8 0.1 0
v 1 0.1 0
v -0.1 0.1 -0.1
v 0.2 0.1 -0.1
v 0.4 0.1 -0.1
v 0.5 0.1 -0.1
v 0.6 0.1 -0.1
v 0.8 0.1 -0.1
v -0.2 0.1 -0.2
v -0.1 0.1 -0.2
v 0.2 0.1 -0.2

# faces
f 3/2/1 2/2/1 1/2/1
f 4/2/1 2/2/1 3/2/1
f 7/2/1 5/2/1 4/2/1
f 8/2/1 5/2/1 7/2/1
f 9/2/1 7/2/1 6/2/1
f 10/2/1 7/2/1 9/2/1
f 13/2/1 12/2/1 11/2/1
f 14/2/1 12/2/1 13/2/1
f 17/2/1 16/2/1 15/2/1
f 18/2/1 16/2/1 17/2/1
f 21/2/1 20/2/1 19/2/1
f 22/2/1 20/2/1 21/2/1
f 25/2/1 24/2/1 23/2/1
f 26/2/1 24/2/1 25/2/1
f 27/1/2 28/1/2 29/1/2
f 29/1/2 28/1/2 30/1/2
f 30/2/2 31/2/2 33/2/2
f 33/2/2 31/2/2 34/2/2
f 32/1/2 33/1/2 35/1/2
f 35/1/2 33/1/2 36/1/2
f 37/1/2 38/1/2 39/1/2
f 39/1/2 38/1/2 40/1/2
f 40/2/2 41/2/2 43/2/2
f 43/2/2 41/2/2 44/2/2
f 42/1/2 43/1/2 45/1/2
f 45/1/2 43/1/2 46/1/2
f 47/1/2 48/1/2 50/1/2
f 50/1/2 48/1/2 51/1/2
f 49/2/2 50/2/2 53/2/2
f 53/2/2 50/2/2 54/2/2
f 51/2/2 52/2/2 55/2/2
f 55/2/2 52/2/2 56/2/2
f 54/1/2 55/1/2 57/1/2
f 57/1/2 55/1/2 58/1/2
f 59/2/2 60/2/2 61/2/2
f 61/2/2 60/2/2 62/2/2
f 65/2/3 64/2/3 63/2/3
f 66/2/3 64/2/3 65/2/3
f 71/2/3 68/2/3 67/2/3
f 72/2/3 68/2/3 71/2/3
f 73/2/3 70/2/3 69/2/3
f 74/2/3 70/2/3 73/2/3
f 75/1/3 72/1/3 71/1/3
f 76/1/3 72/1/3 75/1/3
f 77/1/3 74/1/3 73/1/3
f 78/1/3 74/1/3 77/1/3
f 79/4/3 76/4/3 75/4/3
f 80/4/3 76/4/3 79/4/3
f 81/4/3 78/4/3 77/4/3
f 82/4/3 78/4/3 81/4/3
f 83/3/3 80/3/3 79/3/3
f 84/3/3 80/3/3 83/3/3
f 85/3/3 82/3/3 81/3/3
f 86/3/3 82/3/3 85/3/3
f 87/1/3 84/1/3 83/1/3
f 88/1/3 84/1/3 87/1/3
f 89/1/3 86/1/3 85/1/3
f 90/1/3 86/1/3 89/1/3
f 91/4/3 88/4/3 87/4/3
f 92/4/3 88/4/3 91/4/3
f 93/4/3 90/4/3 89/4/3
f 94/4/3 90/4/3 93/4/3
f 95/3/3 92/3/3 91/3/3
f 96/3/3 92/3/3 95/3/3
f 97/3/3 94/3/3 93/3/3
f 98/3/3 94/3/3 97/3/3
f 99/1/3 96/1/3 95/1/3
f 100/1/3 96/1/3 99/1/3
f 101/1/3 98/1/3 97/1/3
f 102/1/3 98/1/3 101/1/3
f 103/2/3 101/2/3 100/2/3
f 104/2/3 101/2/3 103/2/3
f 107/2/3 106/2/3 105/2/3
f 108/2/3 106/2/3 107/2/3
f 111/2/3 110/2/3 109/2/3
f 112/2/3 110/2/3 111/2/3
f 113/2/3 112/2/3 111/2/3
f 114/2/3 112/2/3 113/2/3
f 115/2/3 114/2/3 113/2/3
f 116/2/3 114/2/3 115/2/3
f 117/2/3 116/2/3 115/2/3
f 118/2/3 116/2/3 117/2/3
f 121/2/3 120/2/3 119/2/3
f 122/2/3 120/2/3 121/2/3
f 123/2/3 122/2/3 121/2/3
f 124/2/3 122/2/3 123/2/3
f 125/2/4 126/2/4 127/2/4
f 127/2/4 126/2/4 128/2/4
f 127/2/4 128/2/4 129/2/4
f 129/2/4 128/2/4 130/2/4
f 129/2/4 130/2/4 131/2/4
f 131/2/4 130/2/4 132/2/4
f 131/2/4 132/2/4 133/2/4
f 133/2/4 132/2/4 134/2/4
f 133/2/4 134/2/4 135/2/4
f 135/2/4 134/2/4 136/2/4
f 135/2/4 136/2/4 137/2/4
f 137/2/4 136/2/4 138/2/4
f 137/2/4 138/2/4 139/2/4
f 139/2/4 138/2/4 140/2/4
f 141/1/4 142/1/4 145/1/4
f 145/1/4 142/1/4 146/1/4
f 143/1/4 144/1/4 147/1/4
f 147/1/4 144/1/4 148/1/4
f 146/2/4 147/2/4 149/2/4
f 149/2/4 147/2/4 150/2/4
f 151/1/4 152/1/4 155/1/4
f 155/1/4 152/1/4 156/1/4
f 153/1/4 154/1/4 157/1/4
f 157/1/4 154/1/4 158/1/4
f 155/4/4 156/4/4 159/4/4
f 159/4/4 156/4/4 160/4/4
f 157/4/4 158/4/4 161/4/4
f 161/4/4 158/4/4 162/4/4
f 159/3/4 160/3/4 163/3/4
f 163/3/4 160/3/4 164/3/4
f 161/3/4 162/3/4 165/3/4
f 165/3/4 162/3/4 166/3/4
f 163/1/4 164/1/4 167/1/4
f 167/1/4 164/1/4 168/1/4
f 165/1/4 166/1/4 169/1/4
f 169/1/4 166/1/4 170/1/4
f 168/2/4 169/2/4 171/2/4
f 171/2/4 169/2/4 172/2/4
f 173/2/4 174/2/4 177/2/4
f 177/2/4 174/2/4 178/2/4
f 175/2/4 176/2/4 179/2/4
f 179/2/4 176/2/4 180/2/4
f 177/1/4 178/1/4 181/1/4
f 181/1/4 178/1/4 182/1/4
f 179/1/4 180/1/4 183/1/4
f 183/1/4 180/1/4 184/1/4
f 182/2/4 183/2/4 185/2/4
f 185/2/4 183/2/4 186/2/4
f 187/2/4 188/2/4 189/2/4
f 189/2/4 188/2/4 190/2/4
f 200/2/5 192/2/5 191/2/5
f 200/1/5 193/1/5 192/1/5
f 201/4/5 194/4/5 193/4/5
f 201/1/5 193/1/5 200/1/5
f 202/3/5 195/3/5 194/3/5
f 202/4/5 194/4/5 201/4/5
f 203/1/5 196/1/5 195/1/5
f 203/3/5 195/3/5 202/3/5
f 204/1/5 196/1/5 203/1/5
f 205/4/5 197/4/5 196/4/5
f 205/1/5 196/1/5 204/1/5
f 206/3/5 198/3/5 197/3/5
f 206/4/5 197/4/5 205/4/5
f 207/1/5 199/1/5 198/1/5
f 207/3/5 198/3/5 206/3/5
f 208/2/5 200/2/5 191/2/5
f 208/4/5 201/4/5 200/4/5
f 209/3/5 202/3/5 201/3/5
f 209/4/5 201/4/5 208/4/5
f 210/1/5 204/1/5 203/1/5
f 210/3/5 202/3/5 209/3/5
f 210/1/5 203/1/5 202/1/5
f 211/1/5 204/1/5 210/1/5
f 212/4/5 205/4/5 204/4/5
f 212/1/5 204/1/5 211/1/5
f 213/3/5 206/3/5 205/3/5
f 213/4/5 205/4/5 212/4/5
f 214/1/5 207/1/5 206/1/5
f 214/3/5 206/3/5 213/3/5
f 215/1/5 199/1/5 207/1/5
f 215/1/5 207/1/5 214/1/5
f 216/1/5 199/1/5 215/1/5
f 217/2/5 208/2/5 191/2/5
f 217/3/5 209/3/5 208/3/5
f 218/1/5 211/1/5 210/1/5
f 218/3/5 209/3/5 217/3/5
f 218/1/5 210/1/5 209/1/5
f 219/4/5 212/4/5 211/4/5
f 219/1/5 211/1/5 218/1/5
f 220/3/5 213/3/5 212/3/5
f 220/4/5 212/4/5 219/4/5
f 221/1/5 214/1/5 213/1/5
f 221/3/5 213/3/5 220/3/5
f 221/1/5 215/1/5 214/1/5
f 222/1/5 215/1/5 221/1/5
f 223/2/5 217/2/5 191/2/5
f 224/1/5 218/1/5 217/1/5
f 224/2/5 217/2/5 223/2/5
f 225/1/5 218/1/5 224/1/5
f 228/2/5 227/2/5 226/2/5
f 229/2/5 227/2/5 228/2/5
f 230/2/5 227/2/5 229/2/5
f 231/2/5 227/2/5 230/2/5
f 232/2/5 227/2/5 231/2/5
f 233/2/5 227/2/5 232/2/5
f 234/2/5 227/2/5 233/2/5
f 235/2/5 227/2/5 234/2/5
f 238/2/5 236/2/5 235/2/5
f 239/2/5 236/2/5 238/2/5
f 244/2/5 238/2/5 237/2/5
f 245/2/5 238/2/5 244/2/5
f 248/2/5 243/2/5 242/2/5
f 248/2/5 241/2/5 240/2/5
f 248/2/5 242/2/5 241/2/5
f 248/2/5 244/2/5 243/2/5
f 249/2/5 244/2/5 248/2/5
f 250/2/5 247/2/5 246/2/5
f 250/2/5 248/2/5 247/2/5
f 251/2/5 248/2/5 250/2/5
f 261/2/5 253/2/5 252/2/5
f 261/1/5 254/1/5 253/1/5
f 262/4/5 255/4/5 254/4/5
f 262/1/5 254/1/5 261/1/5
f 263/3/5 256/3/5 255/3/5
f 263/4/5 255/4/5 262/4/5
f 264/1/5 257/1/5 256/1/5
f 264/3/5 256/3/5 263/3/5
f 265/1/5 257/1/5 264/1/5
f 266/4/5 258/4/5 257/4/5
f 266/1/5 257/1/5 265/1/5
f 267/3/5 259/3/5 258/3/5
f 267/4/5 258/4/5 266/4/5
f 268/1/5 260/1/5 259/1/5
f 268/3/5 259/3/5 267/3/5
f 269/2/5 261/2/5 252/2/5
f 269/4/5 262/4/5 261/4/5
f 270/3/5 263/3/5 262/3/5
f 270/4/5 262/4/5 269/4/5
f 271/1/5 265/1/5 264/1/5
f 271/3/5 263/3/5 270/3/5
f 271/1/5 264/1/5 263/1/5
f 272/1/5 265/1/5 271/1/5
f 273/4/5 266/4/5 265/4/5
f 273/1/5 265/1/5 272/1/5
f 274/3/5 267/3/5 266/3/5
f 274/4/5 266/4/5 273/4/5
f 275/1/5 268/1/5 267/1/5
f 275/3/5 267/3/5 274/3/5
f 276/1/5 260/1/5 268/1/5
f 276/1/5 268/1/5 275/1/5
f 277/1/5 260/1/5 276/1/5
f 278/2/5 269/2/5 252/2/5
f 278/3/5 270/3/5 269/3/5
f 279/1/5 272/1/5 271/1/5
f 279/3/5 270/3/5 278/3/5
f 279/1/5 271/1/5 270/1/5
f 280/4/5 273/4/5 272/4/5
f 280/1/5 272/1/5 279/1/5
f 281/3/5 274/3/5 273/3/5
f 281/4/5 273/4/5 280/4/5
f 282/1/5 275/1/5 274/1/5
f 282/3/5 274/3/5 281/3/5
f 282/1/5 276/1/5 275/1/5
f 283/1/5 276/1/5 282/1/5
f 284/2/5 278/2/5 252/2/5
f 285/1/5 279/1/5 278/1/5
f 285/2/5 278/2/5 284/2/5
f 286/1/5 279/1/5 285/1/5
f 287/2/6 288/2/6 296/2/6
f 288/1/6 289/1/6 296/1/6
f 289/4/6 290/4/6 297/4/6
f 296/1/6 289/1/6 297/1/6
f 290/3/6 291/3/6 298/3/6
f 297/4/6 290/4/6 298/4/6
f 291/1/6 292/1/6 299/1/6
f 298/3/6 291/3/6 299/3/6
f 299/1/6 292/1/6 300/1/6
f 292/4/6 293/4/6 301/4/6
f 300/1/6 292/1/6 301/1/6
f 293/3/6 294/3/6 302/3/6
f 301/4/6 293/4/6 302/4/6
f 294/1/6 295/1/6 303/1/6
f 302/3/6 294/3/6 303/3/6
f 287/2/6 296/2/6 304/2/6
f 296/4/6 297/4/6 304/4/6
f 297/3/6 298/3/6 305/3/6
f 304/4/6 297/4/6 305/4/6
f 299/1/6 300/1/6 306/1/6
f 305/3/6 298/3/6 306/3/6
f 298/1/6 299/1/6 306/1/6
f 306/1/6 300/1/6 307/1/6
f 300/4/6 301/4/6 308/4/6
f 307/1/6 300/1/6 308/1/6
f 301/3/6 302/3/6 309/3/6
f 308/4/6 301/4/6 309/4/6
f 302/1/6 303/1/6 310/1/6
f 309/3/6 302/3/6 310/3/6
f 303/1/6 295/1/6 311/1/6
f 310/1/6 303/1/6 311/1/6
f 311/1/6 295/1/6 312/1/6
f 287/2/6 304/2/6 313/2/6
f 304/3/6 305/3/6 313/3/6
f 306/1/6 307/1/6 314/1/6
f 313/3/6 305/3/6 314/3/6
f 305/1/6 306/1/6 314/1/6
f 307/4/6 308/4/6 315/4/6
f 314/1/6 307/1/6 315/1/6
f 308/3/6 309/3/6 316/3/6
f 315/4/6 308/4/6 316/4/6
f 309/1/6 310/1/6 317/1/6
f 316/3/6 309/3/6 317/3/6
f 310/1/6 311/1/6 317/1/6
f 317/1/6 311/1/6 318/1/6
f 287/2/6 313/2/6 319/2/6
f 313/1/6 314/1/6 320/1/6
f 319/2/6 313/2/6 320/2/6
f 320/1/6 314/1/6 321/1/6
f 322/2/6 323/2/6 324/2/6
f 324/2/6 323/2/6 325/2/6
f 325/2/6 323/2/6 326/2/6
f 326/2/6 323/2/6 327/2/6
f 327/2/6 323/2/6 328/2/6
f 328/2/6 323/2/6 329/2/6
f 329/2/6 323/2/6 330/2/6
f 330/2/6 323/2/6 331/2/6
f 331/2/6 332/2/6 334/2/6
f 334/2/6 332/2/6 335/2/6
f 333/2/6 334/2/6 340/2/6
f 340/2/6 334/2/6 341/2/6
f 338/2/6 339/2/6 344/2/6
f 336/2/6 337/2/6 344/2/6
f 337/2/6 338/2/6 344/2/6
f 339/2/6 340/2/6 344/2/6
f 344/2/6 340/2/6 345/2/6
f 342/2/6 343/2/6 346/2/6
f 343/2/6 344/2/6 346/2/6
f 346/2/6 344/2/6 347/2/6
f 348/2/6 349/2/6 357/2/6
f 349/1/6 350/1/6 357/1/6
f 350/4/6 351/4/6 358/4/6
f 357/1/6 350/1/6 358/1/6
f 351/3/6 352/3/6 359/3/6
f 358/4/6 351/4/6 359/4/6
f 352/1/6 353/1/6 360/1/6
f 359/3/6 352/3/6 360/3/6
f 360/1/6 353/1/6 361/1/6
f 353/4/6 354/4/6 362/4/6
f 361/1/6 353/1/6 362/1/6
f 354/3/6 355/3/6 363/3/6
f 362/4/6 354/4/6 363/4/6
f 355/1/6 356/1/6 364/1/6
f 363/3/6 355/3/6 364/3/6
f 348/2/6 357/2/6 365/2/6
f 357/4/6 358/4/6 365/4/6
f 358/3/6 359/3/6 366/3/6
f 365/4/6 358/4/6 366/4/6
f 360/1/6 361/1/6 367/1/6
f 366/3/6 359/3/6 367/3/6
f 359/1/6 360/1/6 367/1/6
f 367/1/6 361/1/6 368/1/6
f 361/4/6 362/4/6 369/4/6
f 368/1/6 361/1/6 369/1/6
f 362/3/6 363/3/6 370/3/6
f 369/4/6 362/4/6 370/4/6
f 363/1/6 364/1/6 371/1/6
f 370/3/6 363/3/6 371/3/6
f 364/1/6 356/1/6 372/1/6
f 371/1/6 364/1/6 372/1/6
f 372/1/6 356/1/6 373/1/6
f 348/2/6 365/2/6 374/2/6
f 365/3/6 366/3/6 374/3/6
f 367/1/6 368/1/6 375/1/6
f 374/3/6 366/3/6 375/3/6
f 366/1/6 367/1/6 375/1/6
f 368/4/6 369/4/6 376/4/6
f 375/1/6 368/1/6 376/1/6
f 369/3/6 370/3/6 377/3/6
f 376/4/6 369/4/6 377/4/6
f 370/1/6 371/1/6 378/1/6
f 377/3/6 370/3/6 378/3/6
f 371/1/6 372/1/6 378/1/6
f 378/1/6 372/1/6 379/1/6
f 348/2/6 374/2/6 380/2/6
f 374/1/6 375/1/6 381/1/6
f 380/2/6 374/2/6 381/2/6
f 381/1/6 375/1/6 382/1/6
